<svg preserveAspectRatio="none" overflow="visible" style="display: block;" width="14" height="14" viewBox="0 0 14 14" fill="none" xmlns="http://www.w3.org/2000/svg">
<g id="Icons/Action">
<path id="Exclude" fill-rule="evenodd" clip-rule="evenodd" d="M12.25 7.875C12.7333 7.875 13.125 8.26675 13.125 8.75V12.25C13.125 12.7333 12.7333 13.125 12.25 13.125H8.75C8.26675 13.125 7.875 12.7333 7.875 12.25V8.75C7.875 8.26675 8.26675 7.875 8.75 7.875H12.25ZM12.25 8.75H8.75V12.25H12.25V8.75ZM6.125 7.875C6.60825 7.875 7 8.26675 7 8.75V12.25C7 12.7333 6.60825 13.125 6.125 13.125H2.625C2.14175 13.125 1.75 12.7333 1.75 12.25V8.75C1.75 8.26675 2.14175 7.875 2.625 7.875H6.125ZM6.125 8.75H2.625V12.25H6.125V8.75ZM12.25 1.75C12.7333 1.75 13.125 2.14175 13.125 2.625V6.125C13.125 6.60825 12.7333 7 12.25 7H8.75C8.26675 7 7.875 6.60825 7.875 6.125V2.625C7.875 2.14175 8.26675 1.75 8.75 1.75H12.25ZM12.25 2.625H8.75V6.125H12.25V2.625ZM6.125 1.75C6.60825 1.75 7 2.14175 7 2.625V6.125C7 6.60825 6.60825 7 6.125 7H2.625C2.14175 7 1.75 6.60825 1.75 6.125V2.625C1.75 2.14175 2.14175 1.75 2.625 1.75H6.125ZM6.125 2.625H2.625V6.125H6.125V2.625Z" fill="#999999"/>
</g>
</svg>
