<svg preserveAspectRatio="none" overflow="visible" style="display: block;" width="10" height="10" viewBox="0 0 10 10" fill="none" xmlns="http://www.w3.org/2000/svg">
<g id="Frame 2053141372">
<path id="Vector" d="M6.81819 7.43363C6.81819 7.03317 7.04092 6.67272 7.34683 6.41408C7.91606 5.93314 8.3238 5.28893 8.51484 4.56863C8.70589 3.84832 8.67103 3.08672 8.41497 2.38688C8.15891 1.68705 7.69402 1.08279 7.08322 0.655868C6.47242 0.228952 5.74521 0 5 0C4.25479 0 3.52758 0.228952 2.91678 0.655868C2.30598 1.08279 1.84109 1.68705 1.58503 2.38688C1.32897 3.08672 1.29411 3.84832 1.48516 4.56863C1.6762 5.28893 2.08394 5.93314 2.65317 6.41408C2.95908 6.67317 3.18181 7.03272 3.18181 7.43363C3.18181 7.84681 3.51681 8.18181 3.93 8.18181H6.07C6.48319 8.18181 6.81819 7.84681 6.81819 7.43363ZM5 2.2727C4.51779 2.2727 4.05532 2.46426 3.71435 2.80524C3.37337 3.14621 3.18181 3.60868 3.18181 4.09089C3.18182 4.15059 3.17007 4.2097 3.14723 4.26486C3.12439 4.32001 3.09091 4.37013 3.0487 4.41235C3.00649 4.45456 2.95638 4.48805 2.90123 4.5109C2.84608 4.53375 2.78696 4.54551 2.72727 4.54551C2.66757 4.54551 2.60846 4.53375 2.5533 4.5109C2.49815 4.48805 2.44804 4.45456 2.40583 4.41235C2.36362 4.37013 2.33014 4.32001 2.3073 4.26486C2.28446 4.2097 2.27271 4.15059 2.27272 4.09089C2.27272 3.36757 2.56006 2.67387 3.07152 2.16241C3.58299 1.65095 4.27668 1.36361 5 1.36361C5.0597 1.3636 5.11881 1.37535 5.17397 1.39819C5.22913 1.42103 5.27924 1.45451 5.32146 1.49672C5.36367 1.53893 5.39716 1.58904 5.42001 1.64419C5.44286 1.69934 5.45462 1.75846 5.45462 1.81815C5.45462 1.87785 5.44286 1.93697 5.42001 1.99212C5.39716 2.04727 5.36367 2.09738 5.32146 2.13959C5.27924 2.1818 5.22913 2.21528 5.17397 2.23812C5.11881 2.26096 5.0597 2.27271 5 2.2727ZM4.09091 9.09091C4.03121 9.0909 3.97209 9.10265 3.91694 9.12549C3.86178 9.14833 3.81166 9.18181 3.76945 9.22401C3.72723 9.26622 3.69374 9.31634 3.6709 9.37149C3.64805 9.42664 3.63629 9.48576 3.63629 9.54545C3.63629 9.60515 3.64805 9.66426 3.6709 9.71942C3.69374 9.77457 3.72723 9.82468 3.76945 9.86689C3.81166 9.9091 3.86178 9.94258 3.91694 9.96542C3.97209 9.98826 4.03121 10 4.09091 10H5.90909C5.96879 10 6.02791 9.98826 6.08306 9.96542C6.13822 9.94258 6.18834 9.9091 6.23055 9.86689C6.27277 9.82468 6.30626 9.77457 6.3291 9.71942C6.35195 9.66426 6.36371 9.60515 6.36371 9.54545C6.36371 9.48576 6.35195 9.42664 6.3291 9.37149C6.30626 9.31634 6.27277 9.26622 6.23055 9.22401C6.18834 9.18181 6.13822 9.14833 6.08306 9.12549C6.02791 9.10265 5.96879 9.0909 5.90909 9.09091H4.09091Z" fill="white"/>
</g>
</svg>
